<svg xmlns="http://www.w3.org/2000/svg" version="1.1" xmlns:xlink="http://www.w3.org/1999/xlink" xmlns:svgjs="http://svgjs.com/svgjs" width="1440" height="768" preserveAspectRatio="none" viewBox="0 0 1440 768"><g mask="url(&quot;#SvgjsMask1080&quot;)" fill="none"><rect width="1440" height="768" x="0" y="0" fill="#041323"></rect><circle r="8.81" cx="273.94" cy="394.56" filter="url(#SvgjsFilter1081)" fill="rgba(51, 121, 194, 0.58)"></circle><circle r="10.255" cx="1417.275" cy="353.945" filter="url(#SvgjsFilter1081)" fill="rgba(51, 121, 194, 0.58)"></circle><circle r="11.9" cx="761.9399999999999" cy="557.4599999999999" filter="url(#SvgjsFilter1081)" fill="rgba(51, 121, 194, 0.58)"></circle><circle r="12.07" cx="320.23" cy="353.24" filter="url(#SvgjsFilter1081)" fill="rgba(51, 121, 194, 0.58)"></circle><circle r="7.865" cx="1317.665" cy="703.965" filter="url(#SvgjsFilter1081)" fill="rgba(51, 121, 194, 0.58)"></circle><circle r="8.36" cx="825.11" cy="526.6800000000001" filter="url(#SvgjsFilter1081)" fill="rgba(51, 121, 194, 0.58)"></circle><circle r="11.42" cx="695.62" cy="604.67" filter="url(#SvgjsFilter1081)" fill="rgba(51, 121, 194, 0.58)"></circle><circle r="9.56" cx="820.26" cy="209.58" filter="url(#SvgjsFilter1081)" fill="rgba(51, 121, 194, 0.58)"></circle><circle r="10.62" cx="420.72" cy="444.7" filter="url(#SvgjsFilter1081)" fill="rgba(51, 121, 194, 0.58)"></circle><circle r="10.95" cx="625.2900000000001" cy="718.5300000000001" filter="url(#SvgjsFilter1081)" fill="rgba(51, 121, 194, 0.58)"></circle><circle r="7.38" cx="780.66" cy="479.86" filter="url(#SvgjsFilter1081)" fill="rgba(51, 121, 194, 0.58)"></circle><circle r="11.235" cx="780.495" cy="297.135" filter="url(#SvgjsFilter1081)" fill="rgba(51, 121, 194, 0.58)"></circle><circle r="10.555" cx="1317.365" cy="761.135" filter="url(#SvgjsFilter1081)" fill="rgba(51, 121, 194, 0.58)"></circle><circle r="6.535" cx="250.815" cy="477.555" filter="url(#SvgjsFilter1081)" fill="rgba(51, 121, 194, 0.58)"></circle><circle r="8.665" cx="779.385" cy="101.86500000000001" filter="url(#SvgjsFilter1081)" fill="rgba(51, 121, 194, 0.58)"></circle><circle r="10.95" cx="313.53" cy="248.70999999999998" filter="url(#SvgjsFilter1081)" fill="rgba(51, 121, 194, 0.58)"></circle><circle r="10.445" cx="184.525" cy="144.935" filter="url(#SvgjsFilter1081)" fill="rgba(51, 121, 194, 0.58)"></circle><circle r="7.955" cx="46.665" cy="253.66500000000002" filter="url(#SvgjsFilter1081)" fill="rgba(51, 121, 194, 0.58)"></circle><circle r="6.625" cx="110.075" cy="38.855" filter="url(#SvgjsFilter1081)" fill="rgba(51, 121, 194, 0.58)"></circle><circle r="12.735" cx="368.96500000000003" cy="638.245" filter="url(#SvgjsFilter1081)" fill="rgba(51, 121, 194, 0.58)"></circle><path d="M1230 372.2L1250.1 372.2 1243.8 384.1C1243 385.3 1243.4 387.3 1244.9 388.6 1246.7 389.1 1248.7 388.6 1249.5 387.4L1258.1 371.9 1276.7 371.9 1258.9 403.4C1257.9 405.4 1258.4 407.4 1260.1 407.9 1261.7 409.2 1263.6 408.8 1264.6 406.7L1284.2 372 1301.1 371.6 1321.1 405.1 1314 418.3 1271.5 418.2C1271 418.6 1270.4 418.9 1269.9 419.2 1269.3 419.5 1268.5 420.7 1268.3 421.6 1268.2 423.9 1269.7 425.3 1271.7 424.8L1310.4 424.9 1301.3 440.7 1281.5 441.3C1281.2 440.8 1280.6 441.1 1280.1 441.4 1279 442.1 1278.2 443.3 1278.3 444.7 1278.4 446.1 1280 447.5 1281.7 447.9L1297.7 447.3 1286.6 467.4C1285.8 468.6 1286.2 470.5 1287.8 471.9 1289.5 472.3 1291.5 471.9 1292.3 470.7L1302.7 451.8 1309.5 463.4C1310.5 465 1312.8 465.2 1313.9 464.5 1315.6 463.5 1316.6 461.4 1315.6 459.8L1306.7 444.9 1315.9 429.1 1334.2 459.9C1335.2 461.5 1337 462 1338.6 461 1340.3 460 1340.7 458.2 1339.7 456.6L1319.5 422.5 1326.8 408.5 1366 408.2 1373.6 420.8 1353.8 456.4C1352.5 458 1353.2 460.5 1355 460.9 1356.5 462.3 1358.2 461.3 1359.5 459.7L1377.5 427.4 1387 443.4 1377.8 459.3C1377 460.5 1377.8 463 1379 463.8S1382.7 463.8 1384.1 462.2L1390.9 450 1402.4 469.2C1403.3 470.9 1405.6 471 1407.3 470 1408.4 469.4 1409.4 467.3 1408.4 465.6L1397 446.4 1411.6 445.9C1413 445.8 1414.6 444.8 1414.8 442.5 1414.7 441.1 1412.8 439.2 1411.4 439.3L1393 439.8 1383.5 423.8 1420.5 423.4C1422.5 423 1424.2 422 1424.3 419.7 1424.2 418.3 1422.3 416.4 1420.9 416.5L1379.6 417.2 1372.1 404.6 1391.1 370.2 1406.9 370.5 1427.2 404.6C1428.2 406.2 1429.9 406.7 1431.6 405.7 1433.2 404.7 1434.2 402.6 1433.2 401L1414.9 370.2 1433.3 369.7 1442.1 384.5C1443.1 386.2 1444.8 386.6 1446.5 385.7 1448.1 384.7 1448.6 382.9 1447.6 381.3L1440.7 369.7 1462.2 369.6C1463.7 369.5 1465.5 367.6 1465.4 366.2 1465 364.2 1464 362.6 1462 363L1439.7 362.9 1447.3 349.4C1447.7 347.7 1447.3 345.7 1446.1 344.9 1444.9 344.2 1443.5 344.3 1442.4 344.9 1442.4 344.9 1441.8 345.3 1441.6 346.1L1431.6 363.2 1413.3 363.7 1431.8 329.6C1433.1 328.1 1432.7 326.1 1430.6 325.1 1429.7 324.9 1428.8 324.7 1427.7 325.3 1427.2 325.7 1426.6 326 1426.1 326.3L1405.8 363.7 1390.9 363.6 1371 330 1379.4 315.4 1419.2 314.8C1421.5 314.9 1422.8 313.3 1422.4 311.4 1422.8 309.6 1421.3 308.3 1419 308.2L1382.9 308.8 1391.7 292.4 1409.5 292.2C1411 292.1 1412.3 290.6 1412.7 288.8 1412.3 286.9 1411.3 285.2 1409.3 285.6L1395.8 285.5 1405.4 267.8C1406.8 266.3 1405.8 264.7 1404.3 263.3 1403.4 263.1 1402 263.2 1400.9 263.9 1400.9 263.9 1400.3 264.2 1399.8 264.5L1389.4 283.4 1381.2 269.6C1380.5 268.5 1378.4 267.5 1376.8 268.5 1375.1 269.5 1375 271.8 1375.7 272.9L1385.8 289.9 1377 306.4 1357 272.8C1356 271.2 1353.7 271 1352.1 272S1350 274.8 1351 276.4L1372.9 313.3 1365.3 326.7 1326 327 1317.5 312.7 1337.8 276.8C1338.2 275 1337.8 273.1 1336.3 271.7 1335.4 271.5 1334 271.6 1332.9 272.3 1332.3 272.6 1331.8 272.9 1331.6 273.8L1313.5 306.1 1304.1 290.2 1312.9 273.7C1313.7 272.5 1313.2 270.6 1311.7 269.2 1310 268.8 1308 269.2 1307.2 270.4L1300.1 283.6 1289.7 266C1289 264.9 1286.4 264.2 1285.3 264.8 1283.6 265.8 1283 268.5 1283.6 269.6L1294.1 287.2 1279.7 286.8C1279.2 287.1 1278.6 287.4 1278 287.8 1276.9 288.4 1276.2 289.6 1276 290.5 1276.4 292.5 1277.9 293.8 1279.7 294.2L1298 293.8 1307.5 309.7 1270.5 310.1C1268.2 310 1266.9 311.5 1267 313 1266.9 315.3 1268.4 316.6 1270.1 317L1311.4 316.3 1319.9 330.6 1300.9 365 1285.4 365.3 1263.5 328.4C1262.5 326.8 1260.8 326.3 1259.1 327.3 1257.5 328.3 1257 330 1258 331.7L1278 365.2 1259.3 365.2 1249.2 348.1C1248.5 347 1245.9 346.4 1244.2 347.3 1242.6 348.3 1242.5 350.6 1243.1 351.7L1251.3 365.5 1229.8 365.6C1229.2 365.9 1229.2 365.9 1228.7 366.3 1227.6 366.9 1226.8 368.1 1226.6 369 1227 371 1228.5 372.3 1230 372.2ZM1323.8 337.2L1326.2 333.6 1329.9 333.6 1361.7 333.3 1365.5 333.3 1367.4 336.6 1383.5 363.6 1385.4 366.9 1383.6 370.2 1368.2 398 1366.4 401.3 1362.1 401.6 1330.8 401.6 1326.6 401.9 1324.6 398.6 1308.6 371.6 1306.6 368.3 1308.9 364.7 1323.8 337.2Z" fill="rgba(51, 121, 194, 1)"></path><path d="M283.4 334L333 345.9 342.5 362 325.7 357.9C324 357 322.6 358.4 321.6 360.1 321.6 361.5 322.6 363.5 324.1 363.6L347 369.6 356.8 385.2 338.4 385.3 321.3 368.6C321.3 368.6 320.7 368.3 320.7 368.3 319.6 367.7 317.9 368.2 316.7 369 315.8 370.7 315.7 372.2 317.1 373.6L329.6 385.6 311.2 385.7 274.1 350.8C274.1 350.8 273.9 350 273.9 350 272.8 349.3 271 349.9 269.9 350.7 268.4 352 268.6 354.3 270.3 355.3L302.3 386 280 386.8 265.6 373.1C265.6 373.1 265.6 373.1 265 372.8 263.9 372.2 262.5 372.2 261.3 373 260.4 374.7 260 376.6 261.4 378.1L271.1 387.1 254.7 387.6C252.7 387.3 251.8 388.9 251.8 390.4 251.4 392.4 252.8 393.8 255.1 393.6L271.1 393.7 261.9 402.5C261 404.2 260.6 406.2 262.3 407.1 263.7 408.6 265.1 408.6 266.6 407.3L280.3 392.9 302.4 392.6 271.3 425.2C270.2 426 270.4 428.3 271.7 429.8 272.9 430.4 274.9 430.8 276.3 429.4L311.3 392.3 329.6 392.2 317.7 404.6C316.2 406 316.7 407.7 318.1 409.2 318.9 410.4 321.2 410.2 322.4 409.4L338.5 391.9 357.1 391.2 348.2 407.5 325.6 414.1C323.9 414.6 323 416.2 323.5 418 323.4 419.4 325.7 420.6 327.4 420.1L343.9 415.3 335 431.6 285.8 445.5C284 446 283.1 447.7 283.6 449.4 284.1 451.2 285.8 452.1 287.5 451.6L330.7 439.5 320.2 458.5 301.1 464.1C299.4 464.6 298.4 466.3 299 468 299.5 469.8 301.1 470.7 302.9 470.2L315.6 467 307.9 481C307 482.7 307.5 484.4 309.2 485.3 310.9 486.3 312.6 485.7 313.5 484.1L321.2 470 324.8 482.2C325.3 483.9 327 484.9 328.7 484.3S331.4 482.2 330.9 480.4L325.5 462.2 336.3 442.5 348.7 485.1C349.2 486.8 350.9 487.8 352.6 487.3 354.4 486.7 355.3 485.1 354.8 483.3L340.6 434.7 349.5 418.4 354.3 434.9C354.8 436.6 356.5 437.6 358.3 437.1 360 436.5 360.9 434.9 360.4 433.1L353.8 410.5 362.4 394.8 371.6 410.1 366.1 433.3C366.1 434.8 367.1 436.8 368.6 436.9 370.6 437.2 371.7 436.4 372.7 434.7L376.7 418 385.9 433.2 374 482.9C373.6 484.9 374.5 486.1 376.1 487 378.1 487.4 379.6 486 380.2 484.9L391 441.2 402.3 460.5 397.9 479.2C397 480.9 398.4 482.4 400.1 483.3 401.5 483.4 403.5 482.3 403.9 480.3L406.9 468.1 415.6 481.6C416.1 483.3 418.1 483.7 420.1 482.6 421.3 481.8 421.7 479.8 420.9 478.6L412.5 464.6 425.3 467.9C427.3 468.3 428.7 466.9 428.8 465.5 429.7 463.8 428.9 462.6 427.8 462 427.2 461.7 427.2 461.7 426.7 461.4L407.9 457 396.6 437.6 439.8 448.1C441.4 449.1 442.9 447.7 443.8 446 443.9 444.6 443.1 443.4 442 442.8 441.4 442.5 441.4 442.5 441.4 442.5L391.5 429.7 382.3 414.5 399.1 418.5C401 418.9 402.2 418.1 403.1 416.4 403.2 415 402.7 413.2 401.6 412.6 401 412.3 401 412.3 400.4 412L377.2 406.5 368 391.3 385.8 390.8 403.2 407C404.6 408.4 406.9 408.2 408.1 407.4 409 405.7 409.4 403.7 407.7 402.8L395.2 390.9 413.3 389.9 450.6 425.6C451.4 426.8 453.7 426.6 454.9 425.8 455.8 424.1 456.2 422.1 454.8 420.6L422.8 389.9 444.8 389.6 458.6 403C460 404.5 462.3 404.3 463.2 402.6 464.4 401.8 464.8 399.8 463.4 398.3L453.7 389.4 470.1 388.8C471.5 388.9 473 387.5 473.3 385.5 473.1 384.7 472.3 383.5 471.1 382.9 471.1 382.9 470.6 382.6 470 382.3L453.7 382.8 462.6 373.1C463.8 372.3 463.6 370 462.8 368.8 462.2 368.5 462.2 368.5 462.2 368.5 460.5 367.6 458.8 368.1 458.2 369.2L444.8 383 422.4 383.9 453.4 351.3C454.4 349.6 454.4 348.2 453 346.7 453 346.7 452.5 346.4 452.5 346.4 451.3 345.8 449.9 345.7 448.4 347.1L413 383.8 395.2 384.3 407.1 371.9C408 370.2 408.4 368.2 406.7 367.3 407 366.7 406.5 366.4 406.5 366.4 405.3 365.8 403.6 366.3 402.4 367.1L386.3 384.5 368 384.7 376.6 369 399.2 362.4C400.9 361.9 402.1 359.7 401.6 357.9 400.8 356.7 399.1 355.8 397.7 355.8L380.9 361.1 389.8 344.9 438.5 330.7C440.2 330.2 441.1 328.5 440.6 326.7 440.1 325 438.4 324.1 436.7 324.6L394.1 337 404.9 317.4 423.1 312C424.9 311.5 425.8 309.8 425.3 308.1S423.1 305.4 421.3 306L409.2 309.5 416.9 295.5C417.8 293.8 417.3 292.1 415.6 291.1 413.9 290.2 412.2 290.7 411.2 292.4L403.6 306.4 399.4 294C399.2 293.1 398.9 292.2 398.4 291.9 397.8 291.6 396.4 291.6 395.5 291.8 393.8 292.3 392.9 294 393.4 295.7L399.3 314.3 388.5 333.9 375.5 291.1C375.2 290.2 375 289.3 374.4 289 373.9 288.7 372.4 288.6 371.6 288.9 369.8 289.4 368.9 291.1 369.4 292.8L384.2 341.8 375.3 358.1 370.8 341C370.5 340.1 369.4 339.5 368.8 339.2 368.3 338.9 367.7 338.6 366.8 338.8 365.1 339.4 363.9 341.6 364.7 342.8L371 365.9 362.4 381.6 352.6 366.1 358.6 343.1C358.7 341.7 358.2 340 357.1 339.3 356.5 339 356.5 339 356.2 339.6 354.5 338.7 352.5 339.7 352.1 341.7L348 358.5 338.3 342.9 351.1 293C351.1 291.6 350.3 290.4 349.2 289.8 348.6 289.5 348.6 289.5 348.6 289.5 346.6 289.1 344.9 289.6 344.5 291.6L333.7 335.3 322.4 316 326.9 297.2C327.2 295.3 326.4 294.1 325.3 293.5 325.3 293.5 324.7 293.2 324.7 293.2 322.7 292.8 321.2 294.2 320.6 295.3L317.8 308.4 309.5 294.3C308.9 294 308.4 293.7 307.8 293.4 307.3 293.1 305.8 293 305 293.3 303.5 294.6 302.5 296.3 303.9 297.8L312.3 311.9 299.5 308.5C297.5 308.2 296 309.5 295.4 310.7 295.1 312.7 296.4 314.1 298.1 315.1L316.9 319.5 328.5 338.3 285.3 327.8C283.3 327.4 281.3 328.5 281.2 329.9 280.9 331.9 281.4 333.6 283.4 334Z" fill="rgba(51, 121, 194, 1)"></path><path d="M690.5 203L692.9 255.9 683.3 266.9 651.4 260.1 646.6 246 671.1 198.8C671.2 198.2 671.2 198.2 671.4 197.6 671.6 196.3 671.3 195 669.5 193.9 667.7 193.5 666.3 193.9 665.2 195.6L644 236.9 636.9 215.1 646 196.7C646 196.7 646.2 196.1 646.2 196.1 646.4 194.9 646.1 193.5 644.3 192.4 643.2 191.6 641.1 192.4 640 194.1L633.6 205.9 628.6 189.7C628.2 188.3 626.5 187.3 624.4 187.5S621.9 190.3 622.1 192.3L627.3 207.8 615.5 202C613.7 200.9 611.6 201.8 610.5 203.5 610.3 204.8 610.5 206.8 612.2 207.8L630.6 217 637.5 239.4 596.3 218.1C594.5 217.1 592.4 218 591.5 219.1 591.1 221 591.3 223 593.1 224L640.3 247.9 645 262.6 623.6 286.2 608.5 283 579.4 238.7C578.4 237.2 576.6 236.8 575 237.8S573.1 240.7 574.1 242.2L599.8 281.1 576.6 276.1 565.8 259.4C564.8 257.9 563 257.5 560.8 258.3S558.9 261.2 559.9 262.7L567.9 274.2 551 270.6C549.1 270.2 547.4 271.8 547 273.7 546.6 275.6 547.6 277.1 549.5 277.5L566.4 281.1 555 288.5C552.9 289.3 552.4 291.2 554.1 292.9 555 294.4 556.9 294.8 558.4 293.8L575.2 283 598.3 288 558.9 312.9C557.4 313.9 556.9 316.4 557.8 317.9S560.7 319.8 562.2 318.8L607.1 289.8 622.1 293.1 631.8 324 621.6 334.9 568.8 337.3C566.7 337.5 565.7 339.2 565.3 341.1 565.5 343.1 567.3 344.1 569.2 344.5L615.5 342 600.1 359 579.6 359.9C577.6 360.1 576.6 361.8 576.2 363.7 576.5 365.1 578.1 366.8 580.1 366.5L593.3 366.1 582.1 378.7C581.2 379.9 581.4 381.9 582.4 383.4 584.2 384.4 586.2 384.2 587.1 383.1L598.3 370.4 599.2 384.4C599.6 385.8 601.2 387.4 602.6 387.1 604.5 387.5 605.3 386.3 605.7 384.5 605.7 384.5 605.9 383.8 605.9 383.8L605 363.4 620.5 346.4 623 392.7C623.2 394.8 624.2 396.3 626.2 396 628.2 395.8 629.1 394.7 629.3 393.5 629.5 392.8 629.5 392.8 629.5 392.8L626.6 339.2 636.8 328.3 668.7 335.1 672.9 349.1 648.9 397C648 398.1 648.8 400.3 650 401.2 651.7 402.2 653.8 401.3 654.9 399.6L676.2 358.3 683.3 380.2 674.1 398.5C673.1 400.2 673.3 402.2 675.2 402.6 676.9 403.7 679.1 402.8 679.9 401.7L685.9 389.2 690.9 405.4C691.9 406.9 693.7 407.9 695.7 407.7 696.4 407.2 697.3 406.1 697.6 404.8 697.7 404.2 697.7 404.2 697.2 403.4L692.2 387.3 704.7 393.3C706.4 394.3 707.9 393.3 708.8 392.2 709 391.6 709 391.6 709.1 390.9 709.4 389.7 709 388.3 707.9 387.4L689.6 378.2 682.5 356.4 723.7 377.7C725.6 378.1 727.6 377.9 728 376 728.8 375.5 728.8 375.5 728.9 374.9 729.2 373.6 728.2 372.1 727.1 371.2L679.2 347.2 675 333.2 696.6 309 710.9 312.1 739.9 357C740.9 358.5 743.4 359 745 358S747 354.6 746 353L720.3 314.1 742.9 319 754.3 335.8C755.3 337.3 757.2 337.8 758.7 336.8 760.2 335.8 760.6 333.9 759.6 332.4L752.2 321 769.1 324.6C770.4 324.9 772.5 324 772.9 322.2 773.3 320.3 771.9 318 770.6 317.7L753.7 314.1 765.1 306.7C765.9 306.2 766.6 305.7 766.8 305.1 767 303.9 766.6 303.1 766.1 302.4 765.1 300.8 763.2 300.4 761.7 301.4L744.3 312.1 721.8 307.3 761.2 282.3C762 281.8 762.1 281.2 762.4 280 762.5 279.3 762.6 278.7 762.1 277.9 761.2 276.4 758.7 275.9 757.1 276.9L712.4 305.2 698 302.2 688.2 271.9 697.9 260.2 751.4 258C752.8 257.6 754.3 256.6 754.5 255.4 754.7 254.7 754.7 254.7 754.1 254.6 754.5 252.7 752.8 251.1 750.8 251.3L704.5 253.8 720 236.2 740.5 235.3C741.9 235 742.8 233.9 743.1 232.6 743.1 232.6 743.2 232 743.2 232 743.6 230.1 742 228.5 740 228.7L726 229.6 737.3 217C738 216.5 738.1 215.9 738.3 215.2 738.6 214 738.2 212.6 737.6 212.5 736 210.8 733.9 211 732.4 212L721.2 224.7 720.8 211.5C720.5 209.5 718.9 207.8 716.9 208 715.5 208.4 713.9 210 714.2 211.4L715.1 231.8 699.7 248.8 697.2 202.5C696.9 200.5 695.2 199.4 693.3 199 691.9 199.4 690.3 201 690.5 203ZM653.7 267.8L678.1 273 681.9 273.8 683.1 277.3 690.5 300.5 691.6 304.7 689 307.4 672.7 325.5 670.2 328.3 666.4 327.4 642 322.2 638.3 321.4 637.1 317.9 629.6 294.7 628.4 291.1 631.1 287.8 647.4 269.7 649.9 267 653.7 267.8Z" fill="rgba(51, 121, 194, 1)"></path><path d="M350.8 30.5L346.7 39.6 342.6 34.3C342.2 33.7 341.2 33.5 340.3 33.9 339.7 34.6 339.5 35.6 339.9 36.2L345.2 43.4 341.3 51.8 330.7 37.2C329.9 36.4 328.9 36.1 328.4 36.8 327.4 37.3 327.2 38.3 328 39.1L339.7 55.2 336.4 63 317 65.2 312.5 59.2 321.3 39.9C321.3 39.6 321.2 39.3 321.2 38.9 321.2 38.6 320.8 38 320.4 37.7 319.4 37.2 318.5 37.6 318.3 38.6L310.2 56.3 304.9 48.8 308.7 39.7C309 39.6 309 39.3 309 39 308.9 38.4 308.5 37.8 307.8 37.5 307.2 37.3 306.2 37.7 305.7 38.4L302.6 45.8 295.8 36.6C295.4 36 294.4 35.8 293.5 36.2 293 36.9 292.7 37.9 293.1 38.5L299.6 47.1 292.9 47.9C291.9 48 291.4 49 291.5 49.6 291.6 50.6 292.3 51.5 293.3 51.4L301.9 50.4 307.2 57.9 289.4 59.9C288.4 60 287.9 60.7 288 61.6 288.1 62.6 288.8 63.1 289.7 63L309.5 60.8 314.3 67.1 306.4 85 299 85.8 286.9 69.5C286.5 68.5 285.2 68.4 284.6 69.1 283.7 69.5 283.8 70.5 284.2 71.4L295.2 86.3 286 87.3 280.7 79.8C280.3 79.2 279 79 278.4 79.4S277.6 81.1 278 82L282.2 87.7 271 88.9C270.1 89 269.6 90.1 269.7 91 269.7 91.7 270.5 92.5 271.4 92.4L282.6 91.2 279.8 97.9C279.5 98.6 279.6 99.6 280.7 100.1 281.3 100.4 282.6 99.9 282.8 99.2L286.4 90.8 295.6 89.8 288.2 106.7C287.9 107.7 288 108.6 289.1 109.2 289.7 109.4 291 108.9 291.2 108.3L299.4 89.3 306.7 88.5 318.5 104.3 315.1 111.4 295.4 113.6C294.4 113.7 293.8 114.4 293.9 115.4 294.1 116.3 294.8 117.2 295.8 117.1L313.6 115.1 310 123.6 301.4 124.5C300.5 124.6 299.9 125.3 300 126.3 300.1 127.2 300.8 127.8 301.8 127.7L308.4 127 304.1 136.8C303.8 137.5 304.3 138.7 304.9 138.9 305.9 139.2 306.9 139 307.1 138.1L311.8 127.9 316.3 134.1C317 134.7 318 134.9 318.6 134.5 319.2 134.1 319.5 133.5 319.4 132.8 319.4 132.8 319.4 132.5 319 132.2L313.3 124.2 316.8 115.7 328.5 131.2C329 132.1 330 132.3 330.8 131.6 331.1 131.2 331.4 130.8 331.3 130.2 331.3 129.9 331.3 129.6 331.2 129.3L318.4 112.3 321.5 105.5 340.9 103.4 345.9 110.2 337.9 128.5C337.4 129.5 337.8 130.5 338.8 130.7 339.5 131.2 340.4 130.8 340.9 129.8L348.1 113.2 353.8 120.6 350.2 128.8C349.9 129.4 350.3 130.4 351.1 130.9 352 131.1 353 131 353.2 130L356.1 123.9 362.1 131.9C362.5 132.9 363.5 132.8 364.4 132.3 364.7 132 364.9 131.3 364.9 130.7 364.9 130.7 364.8 130.4 364.8 130L358.4 121.4 366.3 120.5C367 120.5 367.8 119.7 367.7 118.8 367.6 117.8 366.6 117.3 366 117.3L356.1 118.4 350.5 111 369.9 108.9C370.8 108.8 371.3 107.7 371.2 106.8S370.4 105.3 369.5 105.4L348.2 107.7 343.6 101.5 351.6 83.5 359.9 82.6 372 99.3C372.7 99.9 373.7 100.1 374.6 99.6 374.9 99.3 375.2 98.6 375.1 98 375 97.7 375 97.3 374.7 97.1L363.7 82.2 372.9 81.2 378.5 88.6C378.9 89.2 379.9 89.4 380.8 89 381.4 88.3 381.6 87.3 381.2 86.7L376.7 80.7 386.9 79.6C387.5 79.5 388.4 78.5 388.3 77.8 388.2 76.9 387.1 76 386.5 76.1L376.3 77.2 379.5 70.8C379.4 70.5 379.4 70.1 379.4 69.8 379.3 69.2 378.9 68.6 378.5 68.3 377.6 68.1 376.6 68.5 376.1 69.2L372.5 77.7 363.3 78.7 370.7 61.8C371.3 60.7 370.8 59.8 370.2 59.6 369.1 59 368.2 59.5 367.7 60.2L359.5 79.1 351.2 80 339.5 64.3 342.5 57.2 363.8 54.8C364.8 54.7 365.4 54 365.3 53 365.2 52.1 364.4 51.5 363.5 51.6L344.1 53.8 348 45.3 357.8 44.2C358.5 44.1 359.3 43.1 359.2 42.1 359.1 41.2 358.1 40.6 357.5 40.7L349.5 41.6 353.9 31.8C353.8 31.4 353.8 31.4 353.8 31.1 353.7 30.5 353.4 29.9 353 29.6 352 29.4 351.1 29.8 350.8 30.5ZM347.4 80.5L348.5 82.3 347.8 84 341.3 98.5 340.6 100.2 338.7 100.4 323.1 102.2 321.2 102.4 320 100.9 310.6 88.1 309.4 86.6 310.2 84.6 316.6 70.4 317.4 68.3 319.3 68.1 334.9 66.4 336.8 66.2 337.9 68 347.4 80.5Z" fill="rgba(51, 121, 194, 1)"></path><path d="M473.7 606.1L471.8 573 491.7 551.1 500.8 579.2 485.4 608.6C485.4 608.6 485.3 609 485.3 609 485.2 609.8 485.8 610.8 486.5 611.3 487.6 612 488.9 611.4 489.2 610.3L502.5 584.5 506.9 598.1 501.2 609.6C501.2 609.6 501.1 610 501.1 610 500.9 610.8 501.5 611.7 502.2 612.3 503.3 612.9 504.7 612.4 504.9 611.2L509 603.5 512.2 613.6C512.4 614.5 513.9 615.2 514.7 615 516 614.8 516.3 613.3 516.1 612.4L513 602.3 520.7 606.4C521.8 607.1 523.1 606.5 523.4 605.4 524 604.3 523.5 602.9 522.3 602.7L510.9 596.9 506.8 583.4 532.6 596.7C533.7 597.4 535 596.8 535.3 595.7 535.9 594.6 535.4 593.2 534.2 593L504.8 577.6 495.7 549.5 525 555.8 543.1 583.9C543.8 584.8 544.9 585.1 545.9 584.4 546.8 583.8 547.1 582.7 546.5 581.7L530.5 557 544.6 560 551.3 570.5C552 571.4 553.1 571.7 554.1 571.1 555 570.5 555.3 569.3 554.7 568.3L550.1 561.2 561 563.6C562.1 564.2 563.1 563.2 563.4 562 563.6 560.9 563 559.9 561.9 559.7L551.7 557.5 558.8 552.9C559.8 552.3 560 551.1 559.4 550.1S557.6 548.9 556.7 549.5L546.2 556.3 532.1 553.2 556.9 537.3C557.8 536.7 558.1 535.5 557.5 534.6 556.8 533.6 555.7 533.4 554.7 534L526.7 552.1 497.7 545.8 517.6 523.9 549.9 522.3C551.1 522.2 551.8 521.1 552 519.9 551.9 518.6 550.8 518 549.6 517.7L520.7 519.3 530.3 508.7 543.1 508.1C544.4 508 545 506.9 545.3 505.7 545.1 504.5 544 503.8 543.2 503.7L534.5 504.3 541.6 496.4C542.1 495.7 542.4 494.1 541.4 493.4 540.3 492.8 539.1 492.6 538.5 493.6L531.4 501.5 530.9 492.8C530.7 491.6 529.6 490.9 528.8 490.7 528 491 527 491.6 526.9 492.4 526.9 492.4 526.8 492.8 526.8 492.8L527.3 505.6 517.6 516.2 516.1 487.2C516 485.9 514.9 485.3 514.1 485.1 513.2 485.3 512.3 486 512.1 486.7 512.1 486.7 512 487.1 512 487.1L513.9 520.3 494 542.2 485 514 500.3 484.6C500.9 483.5 500.4 482.2 499.2 481.9 498.2 481.3 496.8 481.8 496.6 483L483.2 508.7 478.8 495.1 484.5 483.7C485.2 482.6 484.7 481.2 483.5 481 482.4 480.3 481.1 480.9 480.8 482L476.7 489.7 473.5 479.6C473.3 478.8 471.8 478 471 478.3 470.1 478.5 469.6 479.2 469.4 480 469.3 480.4 469.2 480.8 469.5 481.2L472.7 491.3 465 487.2C463.9 486.6 462.5 487.1 462.3 488.3 462.3 488.3 462.2 488.7 462.2 488.7 462 489.4 462.6 490.4 463.3 490.9L474.8 496.7 479.2 510.3 453.4 497C452.3 496.3 451 496.9 450.8 498.1 450.8 498.1 450.7 498.4 450.7 498.4 450.5 499.2 451.1 500.2 451.8 500.7L481.2 516.1 490.3 544.2 461.4 538 443.3 509.9C442.7 509 441.5 508.7 440.5 509.4 439.6 510 439.3 511.1 440 512.1L455.5 536.7 441.4 533.7 434.7 523.2C434.1 522.3 432.9 522 431.9 522.6S430.7 524.4 431.4 525.4L436 532.5 425.8 530.3C424.6 530.1 423.7 530.7 423.4 531.8 423.2 533 423.8 534 424.9 534.2L435.1 536.4 428 541C427.5 541.3 427 541.6 426.9 542.4S427 543.7 427.3 544.1C427.9 545.1 429.1 545.3 430 544.7L440.5 538 454.6 541 429.9 557C429.4 557.3 428.9 557.6 428.7 558.4 428.7 558.8 428.9 559.6 429.2 560.1 429.8 561 431 561.3 431.9 560.7L460 542.6 488.9 548.8 469 570.7 435.9 572.6C435 572.8 434.1 573.4 433.9 574.2 433.9 574.2 433.8 574.6 433.8 574.6 434 575.9 435.1 576.5 435.8 576.7L464.8 575.1 455.2 585.8 442.4 586.3C441.5 586.5 440.6 587.1 440.4 587.9 440.4 587.9 440.3 588.3 440.3 588.3 440.4 589.5 441.5 590.2 442.3 590.3L451 589.8 444 597.7C443.9 598.1 443.4 598.4 443.4 598.8 443.2 599.5 443.4 600.4 444.1 601 445.2 601.6 446.4 601.9 447 600.8L454 592.9 454.6 601.6C454.8 602.8 455.8 603.5 456.6 603.7 457.9 603.5 458.5 602.4 458.7 601.7L458.2 588.9 467.8 578.3 469.4 607.2C469.5 608.5 470.6 609.1 471.4 609.3 472.8 608.4 473.8 607.4 473.7 606.1Z" fill="rgba(51, 121, 194, 1)"></path><path d="M961.7 122.9L975.7 133.6 965 138.5C963.8 139 963 140.6 963.4 142.3 964.4 143.5 966 144.3 967.2 143.9L981.4 137.6 994.4 147.6 965.3 160C963.5 160.9 962.8 162.5 963.8 163.8 964.1 165.5 965.7 166.2 967.5 165.3L999.5 151.5 1011.5 160.3 1007.6 194.2 995.7 199.6 966.2 177C965.6 176.9 965.1 176.9 964.5 176.8 963.9 176.7 962.8 177.2 962.1 177.7 960.8 179.2 961.2 180.9 962.8 181.7L989.7 202.3 974.9 208.5 960.9 198.4C960.9 197.8 960.4 197.8 959.8 197.7 958.7 197.6 957.5 198 956.9 199 956.2 200.1 956.5 201.8 957.5 203.1L969 211.1 950.6 219.2C949.4 219.6 948.7 221.2 949 222.9 950 224.2 951.6 224.9 952.8 224.5L970 216.9 968.7 228.6C968.5 230.3 970 231.6 971.1 231.7 972.8 231.9 974.6 231 974.8 229.3L976.5 214.3 991.3 208.1 987.7 239.2C987.5 240.9 988.5 242.2 990.2 242.3 991.9 242.5 993.1 241.6 993.3 239.9L997.3 205.4 1009.8 199.5 1037.3 220.2 1035.8 233 1003.2 247.2C1001.4 247.6 1000.6 249.8 1001.6 251 1002 252.7 1003.6 252.9 1005.4 252.6L1035 239.6 1033.2 255.8 1018.4 262C1017.2 262.4 1016.4 264.5 1016.8 265.7S1019.4 267.7 1021.1 267.3L1032.4 262.4 1030.1 281.9C1030 283.6 1031.5 284.9 1033.2 285.1 1034.3 285.2 1036.1 284.3 1036.3 282.6L1038.5 263.2 1048.9 270.6C1050 271.2 1051.7 271.4 1053 269.9 1053.6 268.8 1053.3 266.6 1052.3 265.9L1039.3 256.5 1041.2 240.3 1067.1 259.7C1068.7 260.4 1070.4 260.6 1071.7 259.1 1072.4 258 1072.1 255.8 1071 255.1L1041.9 233.7 1043.4 220.9 1074.9 207 1085.7 215.6 1081.7 250.1C1081.5 251.8 1082.5 253 1084.2 253.2 1085.9 253.4 1087.7 252.5 1087.9 250.8L1091.5 219.7 1104.5 229.1 1102.7 244.1C1102.5 245.7 1103.5 247 1105.2 247.2 1106.9 247.4 1108.1 246.4 1108.3 244.7L1109.6 233 1124.7 244.4C1125.7 245 1128 244.7 1128.7 243.7 1129.5 242.1 1129.6 240.4 1128 239.7L1112.5 227.7 1125 222.4C1126.2 221.4 1127 219.8 1126.5 218.6 1126.1 217.5 1125.1 216.8 1123.9 216.6 1123.9 216.6 1123.4 216.6 1122.8 217.1L1106.8 223.7 1093.8 214.3 1124.7 200.4C1126.4 200 1127.2 198.4 1126.3 196.6 1125.8 196 1125.3 195.4 1124.2 195.3 1123.6 195.2 1123 195.1 1122.5 195.1L1088.6 210.3 1078.2 202.3 1082.2 168.4 1095.8 162.7 1123.8 183.4C1125.4 184.7 1127.1 184.3 1127.9 182.7 1129.1 181.7 1128.7 180 1127.2 178.7L1101.7 160 1116.6 153.2 1129.1 162.6C1130.1 163.2 1131.8 162.9 1133.1 161.9 1133.8 160.3 1134 158.6 1132.4 157.9L1123.1 150.6 1139.2 143.4C1140.9 143.1 1141.1 141.4 1140.7 139.7 1140.2 139 1139.2 138.4 1138.1 138.2 1138.1 138.2 1137.5 138.2 1137 138.1L1119.7 145.7 1121.3 131.8C1121.5 130.7 1120.5 128.9 1118.9 128.7 1117.2 128.5 1115.9 130 1115.8 131.1L1113.8 148.4 1098.9 155.1 1102.8 121.2C1103 119.5 1101.5 118.2 1099.8 118S1096.9 118.8 1096.7 120.5L1092.4 157.8 1080 163.1 1052.5 142.4 1054.1 128 1087.3 113.8C1088.6 112.8 1089.3 111.2 1089 109.4 1088.5 108.8 1087.4 108.1 1086.3 108 1085.8 107.9 1085.2 107.9 1084.6 108.4L1054.9 121.3 1056.8 105.2 1071.6 98.4C1072.8 98 1073.6 96.4 1073.2 94.7 1072.2 93.4 1070.6 92.7 1069.4 93.1L1057.5 98.5 1059.6 80.7C1059.7 79.6 1058.2 77.7 1057.1 77.6 1055.5 77.4 1053.6 78.9 1053.5 80L1051.4 97.8 1041.6 89.9C1041.1 89.8 1040.5 89.8 1040 89.7 1038.8 89.6 1037.7 90 1037 90.5 1036.3 92.1 1036.7 93.8 1037.6 95.1L1050.6 104.5 1048.8 120.6 1022.8 101.2C1021.3 99.9 1019.6 100.3 1018.9 101.3 1017.6 102.9 1017.9 104.6 1018.9 105.9L1048 127.3 1046.3 141.7 1014.9 155.6 1004 147.5 1008.3 110.3C1008.5 108.6 1007.5 107.4 1005.8 107.2 1004.1 107 1002.9 108 1002.7 109.6L998.8 143.6 985.8 133.6 987.8 116.4C988 115.3 986.5 113.4 984.8 113.2 983.1 113 981.8 114.5 981.7 115.7L980.1 129.6 965.1 118.2C964.5 118.2 964.5 118.2 963.9 118.1 962.8 118 961.7 118.4 961 118.9 960.3 120.5 960.7 122.2 961.7 122.9ZM1045.6 148.4L1049.1 147.1 1051.7 149.1 1074 165.8 1076.6 167.8 1076.2 171.1 1073.1 198.4 1072.7 201.7 1069.7 203.1 1044.2 214.2 1041.2 215.5 1038.1 213.5 1016.3 196.9 1013.2 194.8 1013.5 191.5 1016.7 164.2 1017.1 160.9 1020.6 159.6 1045.6 148.4Z" fill="rgba(51, 121, 194, 1)"></path><path d="M776.5 469.1L808.1 447.6 821.8 450.4 811.1 457.7C809.8 458.2 809.8 459.7 810.2 461 811 461.8 812.7 462.2 813.4 461.5L828.4 451.7 841.9 454.2 832.7 464.5 814.8 465.5C814.8 465.5 814.4 465.7 814.4 465.7 813.5 466 812.9 467.2 812.7 468.3 813.2 469.7 814 470.4 815.5 470.4L828.4 469.5 819.2 479.8 781.2 482.7C781.2 482.7 780.6 482.4 780.6 482.4 779.7 482.8 779.1 484 778.9 485 778.9 486.6 780.3 487.6 781.7 487.1L814.9 484.8 804.1 497.7 789.2 498.8C789.2 498.8 789.2 498.8 788.8 498.9 787.9 499.2 787.1 500 787 501.1 787.4 502.4 788.4 503.6 789.9 503.6L799.7 502.7 791.8 512.1C790.6 513 791.1 514.4 791.8 515.1 792.8 516.3 794.3 516.3 795.3 514.9L803.4 506 803.7 515.6C804.1 517 805.1 518.2 806.4 517.7 807.9 517.7 808.7 516.9 808.7 515.4L807.6 500.5 818.6 488.1 821 521.8C820.9 522.9 822.3 523.9 823.8 523.9 824.7 523.6 825.9 522.7 825.9 521.1L822.9 483.1 832.1 472.8 833 485.7C833 487.2 834.2 487.8 835.7 487.8 836.8 487.9 837.8 486.6 838 485.5L836.4 467.8 845.4 457 850 470.2 842.2 486.1C841.6 487.3 842.1 488.6 843.3 489.2 844.1 490 845.9 489.4 846.5 488.1L852.1 476.5 856.7 489.7 839.6 524C839 525.3 839.5 526.6 840.7 527.2 841.9 527.8 843.3 527.3 843.9 526.1L858.9 496.1 864.2 511.5 857.7 524.9C857.1 526.1 857.5 527.5 858.8 528.1 860 528.7 861.3 528.2 861.9 527L866.5 518.3 870.5 529.6C870.9 531 872.1 531.6 873.5 531.1 874.9 530.7 875.5 529.4 875 528.1L871.1 516.7 879.6 520.9C880.8 521.5 882.2 521 882.8 519.8S882.9 517.2 881.7 516.6L868.9 510.4 863.4 494.5 893.3 509.1C894.5 509.7 895.9 509.2 896.5 508 897.1 506.7 896.6 505.4 895.4 504.8L861.2 488.1 856.7 475 868.3 480.6C869.5 481.2 870.9 480.8 871.5 479.5 872.1 478.3 871.6 476.9 870.4 476.4L854.5 468.6 850.1 455.9 863.2 458.5 873.4 473.3C874.1 474 875.8 474.5 876.6 473.7 877.8 472.8 877.9 471.7 877.4 470.4L870.2 459.7 883.3 462.3 904.8 493.9C905.8 495.1 906.8 495.3 908.2 494.8 909.4 493.9 909.4 492.3 909.1 491.4L890.3 463.4 906.7 466.9 914.9 478.8C915.3 480.1 916.8 480.1 918.2 479.7 919 478.9 919.4 477.2 918.5 476L913.2 468.2 925.1 470.2C926.3 470.8 927.5 469.8 928 468.2 928.1 467.1 927.2 465.9 926.1 465.8L914.1 463.3 922.4 457.9C923.6 457 923.6 455.5 922.8 454.7 922.3 453.3 921.3 453.2 920.4 453.5 919.9 453.7 919.9 453.7 919.5 453.8L907.6 462 891.1 458.5 918.7 439.9C920.1 439.4 920.1 437.9 919.6 436.5 918.8 435.8 917.8 435.6 916.8 435.9 916.4 436.1 916.4 436.1 916.4 436.1L884.1 457.4 871 454.8 881.7 447.5C883 446.6 883.1 445.6 882.6 444.2 881.9 443.4 880.6 442.9 879.7 443.2 879.3 443.3 879.3 443.3 878.8 443.5L864.1 453.7 851 451.1 859.7 440.9 877.4 439.4C878.9 439.4 880 438 880.1 436.9 879.7 435.6 878.7 434.4 877.4 434.8L864.5 435.7 873 425.2 911.7 422.5C912.8 422.6 913.8 421.3 914 420.2 913.5 418.8 912.6 417.6 911 417.6L877.8 420 888.8 407.6 903.2 406.6C904.7 406.6 905.8 405.3 905.3 403.9 905.4 402.8 904.5 401.6 903 401.6L893.1 402.5 901.1 393.2C901.8 392.4 901.8 390.9 900.9 389.7 900.3 389.4 899.2 389.2 898.3 389.5 898.3 389.5 897.8 389.7 897.4 389.9L889.4 399.2 888.6 389.3C888.7 388.3 887.3 387.2 886.3 387.1 885.8 387.2 885.8 387.2 885.8 387.2 884.5 387.7 883.9 388.9 884.2 389.8L885.1 404.3 874.3 417.1 871.8 383.4C871.4 382.1 870.6 381.3 869.1 381.3 869.1 381.3 868.6 381.5 868.6 381.5 867.7 381.8 867 382.6 867 384.1L869.5 422.3 860.8 432.4 859.9 419.5C859.4 418.2 858.5 417 857.1 417.4 857 417 856.5 417.1 856.5 417.1 855.6 417.5 855 418.7 854.9 419.7L856.4 437.5 847.3 447.8 842.9 435 850.6 419.2C851.2 418 850.6 416.1 849.4 415.6 848.3 415.4 847 415.9 846.2 416.6L840.7 428.7 836.2 415.5 852.8 381.4C853.4 380.1 853 378.8 851.7 378.2 850.5 377.6 849.2 378.1 848.6 379.3L834 409.2 828.5 393.3 834.8 380.5C835.3 379.3 834.9 377.9 833.7 377.3S831.1 377.2 830.5 378.4L826.3 386.9 822.4 375.6C821.9 374.2 820.7 373.6 819.4 374.1 818 374.6 817.4 375.8 817.9 377.2L821.8 388.5 812.8 384.5C812.2 384.2 811.6 383.9 811.1 384.1 810.7 384.2 809.9 385 809.6 385.6 809 386.8 809.5 388.2 810.7 388.8L824 394.9 829.5 410.7 799.1 396.3C798.5 396 797.9 395.7 797.4 395.9 797 396.1 796.2 396.8 795.9 397.4 795.3 398.7 795.8 400 797 400.6L831.6 417.1 836.2 430.3 824.4 424.2C823.8 423.9 822.9 424.2 822.5 424.3 822 424.5 821.6 424.6 821.3 425.3 820.7 426.5 821.3 428.3 822.4 428.4L838.4 436.6 842.8 449.3 829.2 446.9 819.5 432C818.7 431.2 817.5 430.6 816.6 430.9 816.2 431.1 816.2 431.1 816.3 431.5 814.9 432 814.5 433.7 815.4 434.9L822.7 445.6 809.1 443.1 787.9 410.9C787.1 410.1 786 410 785.1 410.3 784.7 410.5 784.7 410.5 784.7 410.5 783.5 411.4 782.9 412.6 783.8 413.8L802.6 441.8 786.2 438.4 778 426.5C777.1 425.3 776 425.1 775.1 425.4 775.1 425.4 774.7 425.6 774.7 425.6 773.5 426.5 773.5 428 773.8 428.9L779.6 437.1 767.6 434.6C767.2 434.8 766.7 434.9 766.3 435.1 765.8 435.2 765 436 764.8 436.6 764.8 438.1 765.2 439.5 766.8 439.5L778.8 441.9 770.5 447.3C769.3 448.3 769.3 449.8 769.6 450.7 770.5 451.9 772 451.9 773.4 451.4L785.3 443.2 801.6 446.3 774 464.9C772.8 465.8 772.4 467.5 773.1 468.3 774 469.5 775.3 470.1 776.5 469.1Z" fill="rgba(51, 121, 194, 1)"></path><path d="M1340.1 602.7L1308.1 644.9 1293.7 647.2 1273.6 621.6 1278.9 607.6 1327.9 587.1C1328.4 586.7 1328.4 586.7 1328.9 586.3 1329.9 585.5 1330.5 584.2 1329.8 582.3 1328.6 580.8 1327.3 580.2 1325.4 580.9L1282.7 599 1291.2 577.6 1309.9 569.4C1309.9 569.4 1310.4 569 1310.4 569 1311.5 568.2 1312.1 566.9 1311.4 565 1311.1 563.6 1308.9 562.9 1307 563.6L1294.6 568.5 1301 552.9C1301.6 551.6 1300.9 549.7 1299.2 548.5S1295.5 549 1294.4 550.7L1288.5 565.9 1283.1 553.9C1282.4 552 1280.2 551.3 1278.3 551.9 1277.3 552.7 1276.2 554.4 1276.9 556.3L1285.1 575.1 1276.1 596.8 1258 554C1257.3 552.1 1255.1 551.4 1253.7 551.7 1252.2 552.9 1251.1 554.6 1251.8 556.5L1272.8 605.1 1267 619.4 1235.5 623.8 1226 611.7 1231.9 559.1C1232.1 557.3 1230.9 555.8 1229.1 555.6S1225.8 556.5 1225.6 558.3L1220.4 604.7 1205.8 586 1208.2 566.3C1208.4 564.5 1207.2 563 1205.1 562.2S1201.7 563.2 1201.5 565L1200.3 579 1189.6 565.4C1188.4 563.9 1186.1 564.1 1184.6 565.2 1183.1 566.4 1182.9 568.2 1184.1 569.7L1194.8 583.3 1181.3 581.7C1179.1 581 1177.6 582.2 1177.8 584.5 1177.5 586.3 1178.7 587.8 1180.5 588L1200.3 590.4 1214.9 609 1168.7 603C1166.9 602.8 1164.9 604.3 1164.7 606.1S1165.6 609.4 1167.4 609.7L1220.4 616.1 1229.9 628.1 1217.6 658.1 1202.8 660 1160.7 628C1159 626.9 1157.1 627.6 1155.6 628.7 1154.4 630.4 1155.1 632.3 1156.3 633.9L1193.5 661.6 1170.8 664.8 1154.5 652.3C1152.8 651.2 1150.9 651.9 1149.4 653.1 1148.8 654.4 1149 656.7 1150.7 657.8L1161.1 665.9 1144.4 668.4C1143 668.7 1141.9 670.4 1141.6 672.2 1142.3 674.1 1144 675.2 1145.4 674.9L1162.1 672.4 1153.9 683.7C1153.3 685 1153.5 687.3 1154.8 687.9 1156 689.4 1157.4 689.1 1158.9 688 1158.9 688 1159.4 687.6 1159.4 687.6L1171.8 671.3 1194.6 668.1 1166.8 705.3C1165.7 707 1165.5 708.8 1167.2 709.9 1168.9 711 1170.3 710.7 1171.3 710 1171.8 709.6 1171.8 709.6 1171.8 709.6L1203.9 666.5 1218.7 664.6 1238.8 690.3 1233.1 703.7 1184 725.2C1182.6 725.5 1181.9 727.7 1182.2 729.1 1182.9 731 1185.1 731.7 1187 731L1229.7 712.9 1221.2 734.2 1202.5 742.4C1200.6 743.1 1199.4 744.8 1200.6 746.3 1201.3 748.2 1203.5 748.9 1204.9 748.7L1217.4 742.9 1211 758.5C1210.8 760.3 1211.5 762.2 1213.2 763.3 1214.1 763.4 1215.5 763.2 1216.5 762.4 1217 762 1217 762 1217.1 761.1L1223.5 745.4 1229.3 758C1230 759.9 1231.8 760.1 1233.2 759.8 1233.7 759.4 1233.7 759.4 1234.2 759 1235.2 758.2 1235.8 756.9 1235.5 755.5L1227.3 736.8 1235.8 715.5 1253.9 758.2C1255.1 759.7 1256.8 760.8 1258.3 759.7 1259.2 759.8 1259.2 759.8 1259.7 759.4 1260.7 758.6 1260.9 756.8 1260.6 755.4L1239.2 706.3 1244.9 692.9 1276.9 688.1 1286 699.6 1279.6 752.7C1279.4 754.5 1281 756.5 1282.8 756.7S1286.6 755.3 1286.8 753.5L1292 707.2 1306.2 725.3 1304.2 745.6C1304 747.4 1305.2 748.9 1306.9 749.1 1308.7 749.3 1310.3 748.2 1310.5 746.4L1312.1 732.9 1322.8 746.5C1323.6 747.5 1325.7 748.2 1327.3 747 1328.8 745.8 1329.1 743.1 1328.3 742.1L1317.6 728.5 1331.1 730.2C1332 730.3 1332.9 730.4 1333.4 730 1334.4 729.2 1334.5 728.3 1334.6 727.4 1334.9 725.6 1333.7 724.1 1331.9 723.9L1311.7 721 1297.5 702.9 1343.7 708.9C1344.6 709 1345.1 708.6 1346.1 707.8 1346.6 707.4 1347.1 707 1347.2 706.1 1347.5 704.3 1345.9 702.3 1344.1 702.1L1291.6 695.3 1282.5 683.7 1294.3 654.1 1309.2 651.4 1351.7 683.9C1353 684.5 1354.8 684.7 1355.8 683.9 1356.3 683.5 1356.3 683.5 1356 683 1357.5 681.8 1357.3 679.5 1355.6 678.4L1318.4 650.7 1341.6 647.1 1357.9 659.5C1359.2 660.2 1360.6 659.9 1361.6 659.1 1361.6 659.1 1362.1 658.7 1362.1 658.7 1363.6 657.5 1363.4 655.2 1361.7 654.1L1350.4 645.9 1367.1 643.3C1368 643.4 1368.5 643 1369 642.7 1370 641.9 1370.6 640.6 1370.2 640.1 1370.1 637.8 1368.4 636.6 1366.6 636.4L1349.9 639 1358 628.6C1359.1 626.9 1358.9 624.6 1357.2 623.4 1355.9 622.8 1353.6 623 1353 624.3L1340.6 640.6 1317.8 643.8 1345.6 606.5C1346.7 604.9 1346 603 1344.8 601.4 1343.5 600.8 1341.2 601 1340.1 602.7ZM1270.4 628.9L1285.8 648.6 1288.2 651.6 1286.8 655.1 1277.7 677.7 1275.9 681.6 1272.2 682 1248.1 685.5 1244.4 686 1242 682.9 1226.6 663.3 1224.2 660.3 1225.6 656.8 1234.7 634.2 1236 630.7 1240.2 629.8 1264.3 626.4 1268 625.9 1270.4 628.9Z" fill="rgba(51, 121, 194, 1)"></path><path d="M153.4 744.5L151.5 729.5 161 733.1C161.9 733.5 163.4 733 164.2 731.8 164.4 730.4 163.9 729 162.9 728.5L150.5 723.6 148.8 709.7 173.9 719.9C175.5 720.5 176.9 720 177.1 718.6 177.9 717.4 177.4 715.9 175.8 715.4L148.1 704.2 146.2 691.6 169.2 673.6 179.7 677.6 183.7 709.2C184 709.5 184.3 709.9 184.6 710.3 184.9 710.7 185.9 711.1 186.5 711.2 188.3 711.1 189.1 709.8 188.6 708.4L184.9 679.6 197.6 684.9 199.9 699.5C199.5 699.8 199.8 700.2 200.1 700.6 200.7 701.3 201.7 701.8 202.7 701.6 203.8 701.3 204.6 700.1 204.8 698.7L202.8 686.9 218.8 693.2C219.8 693.7 221.2 693.2 222 691.9 222.2 690.6 221.7 689.1 220.7 688.7L205.7 682.8 213.6 676.5C214.8 675.7 214.6 673.9 214 673.2 213.2 672 211.5 671.5 210.4 672.4L200.2 680.4 187.5 675.1 208.6 658.5C209.8 657.6 209.9 656.3 209 655.1 208.2 654 206.8 653.8 205.7 654.7L182.3 673.1 171.1 669 167.1 639.8 175.8 633 204.2 644.3C205.5 645.1 207.3 644.3 207.4 643 208.3 641.7 207.4 640.6 206.1 639.7L180.4 629.4 191.3 620.9 204 626.1C205 626.6 206.8 625.8 207.2 624.8S206.9 622.1 205.6 621.2L195.8 617.3 209.1 606.9C210.2 606 210.1 604.3 209.2 603.2 208.6 602.4 206.9 601.9 205.8 602.8L192.6 613.1 190.8 602.3C190.6 601.3 189.7 600.1 188 600.3 186.9 600.5 185.7 602.1 185.9 603.1L188.1 616.7 177.1 625.3 173.2 597.8C172.7 596.4 171.8 595.2 170.1 595.4 169.1 595.6 167.9 597.2 168.1 598.2L172.6 628.8 163.9 635.7 136.5 624.8 135.2 613 158.6 594.7C159.7 593.8 159.9 592.4 159 591.3 158.1 590.2 156.5 589.6 155.3 590.5L134.2 607.1 132.1 593.5 142.3 585.5C143.4 584.6 143.6 583.3 142.7 582.1 141.8 581 140.4 580.8 139.3 581.7L131.4 588 129.2 572C129 570.9 127.4 569.7 126.4 569.9 124.9 570.4 123.8 571.3 124.3 572.7L126.4 589.4 115.6 585C114.3 584.9 112.9 585.4 112.4 586.3 111.9 587.3 112.2 588.4 112.8 589.1 112.8 589.1 113.1 589.5 113.7 589.6L127.4 595.3 129.5 608.9 102.4 598.5C101.1 597.6 99.7 598.1 99.2 599.8 99.1 600.5 99 601.1 99.6 601.9 99.9 602.3 100.2 602.6 100.5 603L130.2 614.5 131.6 625.6 108.6 643.7 96.8 638.8 92.5 609.2C92.4 607.5 91.1 606.7 89.7 607.2 88.4 607 87.5 608.3 87.7 610L91.6 636.8 78.5 631.8 76.7 618.6C76.5 617.6 75.2 616.7 73.9 616.6 72.5 617.1 71.3 618 71.8 619.4L73 629.4 59 624C57.7 623.1 56.6 624 55.7 625.3 55.6 626 55.9 627 56.5 627.8 56.5 627.8 56.7 628.2 57 628.5L72.1 634.5 62.6 641.9C61.9 642.5 61.3 644.1 62.2 645.2 63.1 646.4 64.8 646.2 65.6 645.6L77.3 636.5 90.4 641.5 67.3 659.5C66.2 660.4 66.3 662.1 67.2 663.3S69.4 664.6 70.6 663.7L95.9 643.8 106.6 648.2 110.6 677.4 100.8 685.1 72.1 673.4C70.8 673.3 69.3 673.8 68.5 675.1 68.4 675.7 68.6 676.8 69.2 677.5 69.5 677.9 69.8 678.3 70.5 678.4L96.3 688.7 85.3 697.3 72.2 692.3C71.3 691.8 69.8 692.3 69 693.6 68.8 694.9 69.4 696.4 70.3 696.8L80.8 700.8 68.7 710.3C67.9 710.9 67.7 712.9 68.3 713.7 69.2 714.8 71.2 715 71.9 714.4L84 705 85.1 715.7C85.4 716.1 85.7 716.5 86 716.8 86.6 717.6 87.6 718 88.3 718.1 89.7 717.6 90.5 716.3 90.7 715L88.6 701.4 99.5 692.8 103.4 720.3C103.5 722 104.8 722.9 105.8 722.6 107.6 722.5 108.4 721.2 108.6 719.9L104.1 689.3 113.9 681.6 141.3 692.4 143 703.9 117.7 723.7C116.5 724.6 116.4 726 117.3 727.1 118.1 728.2 119.5 728.4 120.6 727.5L143.7 709.4 145.4 723.3 133.7 732.5C132.9 733.1 132.7 735.1 133.6 736.3 134.5 737.4 136.2 737.3 137 736.7L146.4 729.3 148.6 745.3C148.9 745.6 148.9 745.6 149.2 746 149.7 746.8 150.7 747.2 151.4 747.3 152.8 746.8 153.7 745.5 153.4 744.5ZM118.4 678L115.5 676.6 115.2 673.9 111.9 650.2 111.5 647.4 113.8 645.7 132.3 631.1 134.6 629.4 137.2 630.4 159.3 639.2 162 640.2 162.6 643.4 165.6 666.6 166.2 669.8 164 671.6 145.5 686.1 143.2 687.9 140.3 686.5 118.4 678Z" fill="rgba(51, 121, 194, 1)"></path><path d="M164.2 171.5L144.8 153.3 144.2 129.7 165 141 172.4 166.5C172.4 166.5 172.5 166.8 172.5 166.8 172.9 167.3 173.7 167.5 174.5 167.4 175.4 167.2 175.9 166.2 175.4 165.4L168.9 143.1 179 148.5 182 158.3C182 158.3 182.2 158.6 182.2 158.6 182.5 159.1 183.4 159.4 184.1 159.3 185.1 159.1 185.6 158 185.1 157.2L183.2 150.5 190.6 154.6C191.2 155 192.5 154.6 192.8 154 193.5 153.2 192.8 152.1 192.2 151.7L184.8 147.6 191.6 145.7C192.5 145.5 193 144.5 192.5 143.6 192.3 142.7 191.3 142.2 190.4 142.7L180.6 145.7 170.8 140 193.1 133.5C194.1 133.3 194.6 132.3 194.1 131.4 193.9 130.5 192.8 130 192 130.5L166.5 137.8 145.7 126.5 166.2 114 192.1 120.3C193 120.5 193.8 120 194 119.1 194.2 118.2 193.7 117.4 192.9 117.2L170 111.7 179.8 105.7 189.5 108C190.4 108.2 191.2 107.7 191.4 106.8 191.6 105.9 191.1 105.1 190.2 104.9L183.6 103.3 191.3 98.7C192.3 98.4 192.3 97.3 191.8 96.5 191.3 95.6 190.4 95.4 189.6 95.9L182.5 100.3 184.1 93.7C184.3 92.8 183.8 92 182.9 91.8S181.2 92 181 92.9L178.7 102.6 168.9 108.6 174.4 85.7C174.6 84.9 174.1 84 173.2 83.8 172.3 83.6 171.5 84.1 171.3 85L165 110.9 144.8 123.3 144.3 99.6 162 80.9C162.7 80.1 162.5 79.1 162 78.3 161.2 77.7 160.2 77.9 159.4 78.4L143.5 95.3 143.2 83.8 150.3 76.4C151 75.7 150.7 74.7 150.2 73.9 149.5 73.2 148.5 73.4 147.9 73.8L143.2 78.9 142.9 70.5C142.9 69.7 142.2 68.7 141.2 68.9 140.2 69.1 139.4 69.6 139.6 70.6L139.9 79 134.8 74.3C134 73.7 133 73.9 132.5 74.2 132.1 74.8 131.9 75.7 132.2 76.3 132.2 76.3 132.4 76.5 132.4 76.5L139.7 83.7 140 95.1 123.1 79.2C122.3 78.5 121.4 78.8 120.8 79.1 120.4 79.7 120.2 80.6 120.6 81.1 120.6 81.1 120.7 81.4 120.7 81.4L140.1 99.6 140.7 123.2 119.9 111.9 112.5 86.4C112.3 85.4 111.3 84.9 110.4 85.4 109.5 85.7 109 86.7 109.5 87.5L116 109.8 105.9 104.4 102.9 94.6C102.7 93.6 101.6 93.1 100.8 93.6 99.8 93.8 99.3 94.9 99.8 95.7L101.7 102.4 94.3 98.3C93.7 97.9 92.4 98.3 92.1 98.9 91.7 99.5 91.7 100.2 92.1 100.8 92.2 101.1 92.4 101.3 92.8 101.4L100.2 105.6 93.5 107.4C92.5 107.7 92 108.7 92.5 109.5 92.5 109.5 92.7 109.8 92.7 109.8 93 110.3 93.9 110.5 94.6 110.5L104.4 107.5 114.5 113 92.2 119.5C91.2 119.7 90.8 120.7 91.3 121.5 91.3 121.5 91.4 121.8 91.4 121.8 91.8 122.4 92.6 122.6 93.4 122.5L118.9 115.2 139.6 126.5 119.4 138.8 93.5 132.6C92.6 132.3 91.8 132.8 91.6 133.7 91.4 134.6 91.9 135.4 92.7 135.6L115.4 141.3 105.5 147.3 95.8 145C95 144.8 94.1 145.3 93.9 146.2S94.2 147.9 95.1 148.1L101.7 149.7 94.6 154C93.8 154.5 93.6 155.4 94.1 156.2 94.6 157 95.5 157.2 96.3 156.7L103.4 152.4 101.8 159C101.7 159.4 101.6 159.9 101.9 160.4S102.7 161.1 103.1 161.2C104 161.4 104.8 160.9 105 160L107.4 150.3 117.2 144.3 111.7 167.2C111.6 167.6 111.5 168.1 111.8 168.6 112 168.9 112.6 169.3 113 169.4 113.9 169.6 114.7 169.1 114.9 168.2L121.2 142.3 141.4 129.9 142 153.6 123.8 172.9C123.4 173.5 123.2 174.4 123.5 175 123.5 175 123.7 175.2 123.7 175.2 124.5 175.9 125.5 175.6 126 175.3L141.9 158.4 142.2 169.9 135.1 177.3C134.7 177.9 134.5 178.8 134.8 179.3 134.8 179.3 135 179.6 135 179.6 135.8 180.2 136.7 180 137.3 179.7L142 174.5 142.3 183C142.5 183.2 142.4 183.7 142.5 184 142.9 184.5 143.5 184.9 144.2 184.8 145.2 184.6 146 184.1 145.8 183.1L145.5 174.7 150.6 179.4C151.4 180 152.4 179.8 152.9 179.5 153.6 178.7 153.4 177.7 153 177.2L145.7 170 145.4 158.6 162.3 174.5C163.1 175.2 164 174.9 164.6 174.6 164.9 173.3 164.9 172.1 164.2 171.5Z" fill="rgba(51, 121, 194, 1)"></path></g><defs><mask id="SvgjsMask1080"><rect width="1440" height="768" fill="#ffffff"></rect></mask><filter id="SvgjsFilter1081"><feGaussianBlur stdDeviation="1"></feGaussianBlur></filter></defs></svg>